{"title":"Titanic, La Leggenda Continua 2000 DVDrip English Dutch Klam","uid":9437227,"size":939950427,"categoryP":"video","categoryS":"movies","magnet":"?xt=urn:btih:af910dbe4e5b2a66f552661ec2ae70352c16186d&amp;dn=Titanic%2C+La+Leggenda+Continua+2000+DVDrip+English+Dutch+Klam&amp;tr=udp%3A%2F%2Ftracker.openbittorrent.com%3A80&amp;tr=udp%3A%2F%2Fopen.demonii.com%3A1337&amp;tr=udp%3A%2F%2Ftracker.coppersurfer.tk%3A6969&amp;tr=udp%3A%2F%2Fexodus.desync.com%3A6969","seeders":1,"leechers":0,"uploader":"Klambake","files":-1,"time":1388929509,"description":"With the voices of Francesca Guadagno, Francesco Pezzulli and Valeria Perilli\n\nEen tekenfilm over het tragische verhaal van de Titanic. De film volgt niet alleen een groep mensen aan boord, maar ook alle aanwezige muizen, katten en honden. De aandacht gaat in het bijzonder uit naar de opbloeiende liefde tussen de rijke Sir William en het arme meisje Angelica, die in Amerika liefde tracht te vinden.\n\nA Cinderella meets her Prince Charming on the ill-fated Titanic. Along for the ride are a rapping dog, other talking animals, and an assortment of wacky humans. \n &lt;a href=&quot;\nhttp://www.imdb.com/title/tt0330994&quot; rel=&quot;nofollow&quot; target=&quot;_NEW&quot;&gt;\nhttp://www.imdb.com/title/tt0330994&lt;/a&gt;\tDAGdJaafa\n\n--------------------- Dutch Friends 4ever ---------------------\n---------------------------------------------------------------\n- Bezoek ook eens mijn vrienden op: &lt;a href=&quot; http://www.Film-Test.nl&quot; rel=&quot;nofollow&quot; target=&quot;_NEW&quot;&gt; http://www.Film-Test.nl&lt;/a&gt; --\n----- voor mijn Nederlandse Sync. ondertitels ---- en meer ----\n------- http://www.Film-Test.nl ---- Over Films en meer -------\n---------------------------------------------------------------\n\nGeneral:\n\nComplete name                    : De Legende van de Titanic.avi\nFormat                           : AVI\nFormat/Info                      : Audio Video Interleave\nFile size                        : 896 MiB\nDuration                         : 1h 22mn\nOverall bit rate                 : 1 526 Kbps\nWriting application              : VirtualDubMod 1.5.4.1 (build 2178/release)\nWriting library                  : VirtualDubMod build 2178/release\n\nVideo:\n\nFormat                           : MPEG-4 Visual\nFormat profile                   : Advanced Simple@L5\nFormat settings, BVOP            : 1\nFormat settings, QPel            : No\nFormat settings, GMC             : No warppoints\nFormat settings, Matrix          : Custom\nCodec ID                         : XVID\nCodec ID/Hint                    : XviD\nDuration                         : 1h 22mn\nBit rate                         : 1 205 Kbps\nWidth                            : 640 pixels\nHeight                           : 448 pixels\nDisplay aspect ratio             : 1.429\nFrame rate                       : 25.000 fps\nColor space                      : YUV\nChroma subsampling               : 4:2:0\nBit depth                        : 8 bits\nScan type                        : Progressive\nCompression mode                 : Lossy\nBits/(Pixel*Frame)               : 0.168\nStream size                      : 708 MiB (79%)\nWriting library                  : XviD 1.2.1 (UTC 2008-12-04)\n\nAudio:\n\nFormat                           : AC-3\nFormat/Info                      : Audio Coding 3\nMode extension                   : CM (complete main)\nCodec ID                         : 2000\nDuration                         : 1h 22mn\nBit rate mode                    : Constant\nBit rate                         : 192 Kbps\nChannel(s)                       : 2 channels\nChannel positions                : Front: L R\nSampling rate                    : 48.0 KHz\nBit depth                        : 16 bits\nCompression mode                 : Lossy\nStream size                      : 113 MiB (13%)\nAlignment                        : Split accross interleaves\nInterleave, duration             : 96 ms (2.40 video frames)\nInterleave, preload duration     : 96 ms\nLanguage                         : English/Dutch","torrent":{"xt":"urn:btih:af910dbe4e5b2a66f552661ec2ae70352c16186d","amp;dn":"Titanic%2C+La+Leggenda+Continua+2000+DVDrip+English+Dutch+Klam","amp;tr":["udp%3A%2F%2Ftracker.openbittorrent.com%3A80","udp%3A%2F%2Fopen.demonii.com%3A1337","udp%3A%2F%2Ftracker.coppersurfer.tk%3A6969","udp%3A%2F%2Fexodus.desync.com%3A6969"],"infoHash":"af910dbe4e5b2a66f552661ec2ae70352c16186d","infoHashBuffer":{"type":"Buffer","data":[175,145,13,190,78,91,42,102,245,82,102,30,194,174,112,53,44,22,24,109]},"announce":[],"urlList":[]}}